<svg width="19" height="20" viewBox="0 0 19 20" fill="none" xmlns="http://www.w3.org/2000/svg">
<path d="M18.04 3.689C18.04 3.363 17.911 3.05 17.68 2.819C17.449 2.589 17.136 2.45901 16.81 2.45901H13.71C13.458 1.74301 12.99 1.12201 12.371 0.682007C11.752 0.242007 11.013 0.004 10.253 0H7.793C7.033 0.002 6.292 0.239993 5.672 0.679993C5.052 1.11999 4.58302 1.74201 4.33002 2.45901H1.23001C0.904011 2.45901 0.591016 2.589 0.360016 2.819C0.130016 3.05 0 3.363 0 3.689C0 4.015 0.130016 4.32799 0.360016 4.55899C0.591016 4.78899 0.904011 4.91901 1.23001 4.91901H1.64001V15.165C1.64001 16.361 2.115 17.508 2.961 18.353C3.806 19.199 4.95302 19.674 6.14902 19.674H11.887C13.083 19.674 14.23 19.199 15.075 18.353C15.921 17.508 16.396 16.361 16.396 15.165V4.918H16.806C16.968 4.919 17.128 4.88699 17.278 4.82599C17.427 4.76399 17.563 4.674 17.678 4.56C17.793 4.445 17.884 4.31 17.946 4.16C18.008 4.011 18.04 3.851 18.04 3.689ZM13.94 15.165C13.94 15.434 13.887 15.701 13.784 15.949C13.681 16.198 13.53 16.424 13.34 16.614C13.15 16.804 12.924 16.955 12.675 17.058C12.427 17.161 12.16 17.214 11.891 17.214H6.15402C5.88502 17.214 5.61903 17.161 5.37003 17.058C5.12103 16.955 4.89602 16.804 4.70502 16.614C4.51502 16.424 4.36402 16.198 4.26102 15.949C4.15802 15.701 4.10501 15.434 4.10501 15.165V4.918H13.942L13.94 15.165Z" fill="black"/>
<path d="M6.97705 13.343C7.30305 13.343 7.61605 13.213 7.84705 12.983C8.07805 12.752 8.20703 12.439 8.20703 12.113V7.19501C8.19803 6.87501 8.06505 6.57099 7.83505 6.34799C7.60505 6.12499 7.29803 6 6.97803 6C6.65803 6 6.35006 6.12499 6.12006 6.34799C5.89106 6.57099 5.75705 6.87501 5.74805 7.19501V12.113C5.74805 12.439 5.87803 12.752 6.10803 12.982C6.33903 13.213 6.65105 13.343 6.97705 13.343Z" fill="black"/>
<path d="M11.0727 13.343C11.3987 13.343 11.7117 13.213 11.9427 12.983C12.1727 12.752 12.3027 12.439 12.3027 12.113V7.19501C12.2937 6.87501 12.1597 6.57099 11.9307 6.34799C11.7007 6.12499 11.3937 6 11.0727 6C10.7527 6 10.4457 6.12499 10.2157 6.34799C9.98673 6.57099 9.85275 6.87501 9.84375 7.19501V12.113C9.84375 12.439 9.97274 12.752 10.2037 12.982C10.4337 13.213 10.7467 13.343 11.0727 13.343Z" fill="black"/>
</svg>
