<svg width="21" height="21" viewBox="0 0 21 21" fill="none" xmlns="http://www.w3.org/2000/svg">
<path fill-rule="evenodd" clip-rule="evenodd" d="M10.5294 0.000119096C8.44941 -0.00988091 6.41938 0.610129 4.68938 1.76013C2.95938 2.91013 1.60937 4.55008 0.809374 6.46008C0.00937414 8.38008 -0.200611 10.4901 0.199389 12.5301C0.599389 14.5702 1.59938 16.4402 3.06938 17.9202C4.52938 19.3902 6.39932 20.3902 8.43932 20.8002C10.4793 21.2002 12.5894 21.0001 14.5094 20.2001C16.4294 19.4101 18.0694 18.0601 19.2294 16.3401C20.3794 14.6101 20.9994 12.5801 20.9994 10.5001C20.9994 7.72012 19.8994 5.05009 17.9294 3.09009C15.9694 1.12009 13.3094 0.0101191 10.5294 0.000119096ZM11.3594 13.3301C10.5794 13.2801 10.2694 12.8701 9.6494 12.5101C9.3294 14.2601 8.91936 15.9101 7.72936 16.7801C7.35936 14.1601 8.24941 12.2001 8.65941 10.0901C7.92941 8.91009 8.7594 6.44017 10.2694 7.05017C12.1294 7.77017 8.65937 11.5802 10.9894 12.0502C13.4794 12.5602 14.4693 7.7701 12.9593 6.2301C10.7293 4.0201 6.52943 6.18012 7.04943 9.37012C7.20943 10.1401 7.97941 10.4001 7.40941 11.4801C5.95941 11.1701 5.54935 10.0401 5.59935 8.6001C5.68935 7.4801 6.16934 6.43013 6.95934 5.63012C7.73934 4.83012 8.7794 4.33009 9.8994 4.22009C12.5394 3.91009 15.0293 5.20016 15.3393 7.67016C15.7593 10.5002 14.1494 13.5401 11.3494 13.3301H11.3594Z" fill="#3D3017"/>
</svg>
