<svg width="105" height="80" viewBox="0 0 105 80" fill="none" xmlns="http://www.w3.org/2000/svg">
<path d="M99.9837 79.2C98.617 79.2 97.377 79.04 96.2637 78.72V77.11C97.457 77.4433 98.7003 77.61 99.9937 77.61C100.994 77.61 101.714 77.4767 102.154 77.21C102.594 76.9367 102.814 76.54 102.814 76.02C102.814 75.74 102.764 75.51 102.664 75.33C102.564 75.1433 102.394 74.99 102.154 74.87C101.914 74.7433 101.584 74.6467 101.164 74.58L99.2337 74.28C98.1137 74.1 97.3037 73.76 96.8037 73.26C96.3103 72.76 96.0637 72.09 96.0637 71.25C96.0637 70.23 96.4837 69.4267 97.3237 68.84C98.1703 68.2467 99.4603 67.95 101.194 67.95C101.74 67.95 102.284 67.9867 102.824 68.06C103.37 68.1267 103.874 68.2267 104.334 68.36V69.96C103.32 69.68 102.277 69.54 101.204 69.54C100.104 69.54 99.327 69.6833 98.8737 69.97C98.4203 70.2567 98.1937 70.6533 98.1937 71.16C98.1937 71.54 98.3103 71.85 98.5437 72.09C98.777 72.3233 99.1937 72.4933 99.7937 72.6L101.724 72.9C102.837 73.0733 103.654 73.3933 104.174 73.86C104.694 74.3267 104.954 75.0033 104.954 75.89C104.954 76.5767 104.767 77.1667 104.394 77.66C104.027 78.1533 103.47 78.5333 102.724 78.8C101.984 79.0667 101.07 79.2 99.9837 79.2Z" fill="#3D3017"/>
<path d="M88.2652 68.12H90.0952L90.2652 69.51H90.3952C90.7886 69.0367 91.2952 68.6667 91.9152 68.4C92.5419 68.1333 93.1952 68 93.8752 68C94.2619 68 94.6252 68.0333 94.9652 68.1V70.09C94.6386 70.03 94.2386 70 93.7652 70C93.1786 70 92.5819 70.1133 91.9752 70.34C91.3686 70.5667 90.8719 70.9033 90.4852 71.35V79H88.2652V68.12Z" fill="#3D3017"/>
<path d="M85.7631 74.22H77.8731C77.9131 75.0067 78.0831 75.6433 78.3831 76.13C78.6831 76.61 79.1331 76.9633 79.7331 77.19C80.3331 77.4167 81.1031 77.53 82.0431 77.53C82.9764 77.53 84.0097 77.3867 85.1431 77.1V78.75C83.9631 79.05 82.8264 79.2 81.7331 79.2C79.7064 79.2 78.1864 78.7433 77.1731 77.83C76.1664 76.91 75.6631 75.4933 75.6631 73.58C75.6631 72.38 75.8664 71.36 76.2731 70.52C76.6797 69.68 77.2664 69.0433 78.0331 68.61C78.8064 68.17 79.7364 67.95 80.8231 67.95C82.4231 67.95 83.6464 68.44 84.4931 69.42C85.3397 70.3933 85.7631 71.8 85.7631 73.64V74.22ZM80.7931 69.42C79.8597 69.42 79.1464 69.7033 78.6531 70.27C78.1597 70.83 77.8964 71.7 77.8631 72.88H83.6731C83.6464 71.7 83.3931 70.83 82.9131 70.27C82.4331 69.7033 81.7264 69.42 80.7931 69.42Z" fill="#3D3017"/>
<path d="M73.0216 77.38C73.235 77.38 73.4516 77.3667 73.6716 77.34C73.8916 77.3133 74.165 77.2667 74.4916 77.2V78.96C73.8116 79.12 73.135 79.2 72.4616 79.2C71.1216 79.2 70.1016 78.8733 69.4016 78.22C68.7016 77.5667 68.3516 76.58 68.3516 75.26V69.91H66.1816V68.12H68.3516L68.7316 64.2H70.5716V68.12H74.3416V69.91H70.5716V74.85C70.5716 75.75 70.7716 76.3967 71.1716 76.79C71.5716 77.1833 72.1883 77.38 73.0216 77.38Z" fill="#3D3017"/>
<path d="M60.3157 79.2C58.949 79.2 57.709 79.04 56.5957 78.72V77.11C57.789 77.4433 59.0324 77.61 60.3257 77.61C61.3257 77.61 62.0457 77.4767 62.4857 77.21C62.9257 76.9367 63.1457 76.54 63.1457 76.02C63.1457 75.74 63.0957 75.51 62.9957 75.33C62.8957 75.1433 62.7257 74.99 62.4857 74.87C62.2457 74.7433 61.9157 74.6467 61.4957 74.58L59.5657 74.28C58.4457 74.1 57.6357 73.76 57.1357 73.26C56.6424 72.76 56.3957 72.09 56.3957 71.25C56.3957 70.23 56.8157 69.4267 57.6557 68.84C58.5024 68.2467 59.7924 67.95 61.5257 67.95C62.0724 67.95 62.6157 67.9867 63.1557 68.06C63.7024 68.1267 64.2057 68.2267 64.6657 68.36V69.96C63.6524 69.68 62.609 69.54 61.5357 69.54C60.4357 69.54 59.659 69.6833 59.2057 69.97C58.7524 70.2567 58.5257 70.6533 58.5257 71.16C58.5257 71.54 58.6424 71.85 58.8757 72.09C59.109 72.3233 59.5257 72.4933 60.1257 72.6L62.0557 72.9C63.169 73.0733 63.9857 73.3933 64.5057 73.86C65.0257 74.3267 65.2857 75.0033 65.2857 75.89C65.2857 76.5767 65.099 77.1667 64.7257 77.66C64.359 78.1533 63.8024 78.5333 63.0557 78.8C62.3157 79.0667 61.4024 79.2 60.3157 79.2Z" fill="#3D3017"/>
<path d="M48.8735 67.95C50.0202 67.95 50.9535 68.0867 51.6735 68.36C52.3935 68.6267 52.9335 69.0733 53.2935 69.7C53.6535 70.3267 53.8335 71.18 53.8335 72.26V79H51.9735L51.8135 77.83H51.6935C51.2869 78.2567 50.7735 78.59 50.1535 78.83C49.5335 79.0633 48.8735 79.18 48.1735 79.18C47.3735 79.18 46.6902 79.0567 46.1235 78.81C45.5569 78.5567 45.1269 78.2033 44.8335 77.75C44.5402 77.2967 44.3935 76.7633 44.3935 76.15C44.3935 75.1833 44.7535 74.4367 45.4735 73.91C46.2002 73.3767 47.3535 73.04 48.9335 72.9L51.6535 72.63V72.11C51.6535 71.47 51.5435 70.97 51.3235 70.61C51.1035 70.25 50.7702 69.9967 50.3235 69.85C49.8835 69.7033 49.2969 69.63 48.5635 69.63C48.0569 69.63 47.5069 69.6733 46.9135 69.76C46.3269 69.8467 45.7635 69.9767 45.2235 70.15V68.49C45.7569 68.3167 46.3469 68.1833 46.9935 68.09C47.6469 67.9967 48.2735 67.95 48.8735 67.95ZM48.7635 77.64C49.2969 77.64 49.8135 77.5467 50.3135 77.36C50.8135 77.1667 51.2602 76.88 51.6535 76.5V73.95L49.1035 74.2C48.2169 74.3 47.5835 74.4933 47.2035 74.78C46.8235 75.06 46.6335 75.46 46.6335 75.98C46.6335 76.5067 46.8102 76.9167 47.1635 77.21C47.5169 77.4967 48.0502 77.64 48.7635 77.64Z" fill="#3D3017"/>
<path d="M36.8366 79.2C35.7233 79.2 34.7533 78.99 33.9266 78.57C33.1066 78.15 32.47 77.52 32.0166 76.68C31.57 75.84 31.3466 74.8 31.3466 73.56C31.3466 72.3333 31.5666 71.3033 32.0066 70.47C32.4533 69.63 33.0866 69 33.9066 68.58C34.7266 68.16 35.7033 67.95 36.8366 67.95C38.57 67.95 39.9166 68.4233 40.8766 69.37C41.8366 70.31 42.3167 71.7067 42.3167 73.56C42.3167 74.78 42.09 75.8133 41.6367 76.66C41.1833 77.5 40.5433 78.1333 39.7166 78.56C38.8966 78.9867 37.9366 79.2 36.8366 79.2ZM36.8366 77.44C39.01 77.44 40.0966 76.15 40.0966 73.57C40.0966 72.23 39.8166 71.2533 39.2566 70.64C38.6966 70.02 37.89 69.71 36.8366 69.71C35.7833 69.71 34.9733 70.0167 34.4066 70.63C33.8466 71.2433 33.5666 72.2167 33.5666 73.55C33.5666 76.1433 34.6566 77.44 36.8366 77.44Z" fill="#3D3017"/>
<path d="M27.8741 79L23.1641 73.1C23.0441 73.1067 22.8608 73.11 22.6141 73.11C21.9541 73.11 21.1808 73.0767 20.2941 73.01V79H18.0741V64.55C19.5875 64.21 21.1508 64.04 22.7641 64.04C24.9575 64.04 26.5841 64.4 27.6441 65.12C28.7041 65.8333 29.2341 66.9733 29.2341 68.54C29.2341 69.6733 28.9141 70.6 28.2741 71.32C27.6408 72.04 26.7008 72.5433 25.4541 72.83L30.4241 79H27.8741ZM20.2941 71.31C20.7475 71.3567 21.1441 71.39 21.4841 71.41C21.8308 71.43 22.2375 71.44 22.7041 71.44C24.2375 71.44 25.3541 71.21 26.0541 70.75C26.7541 70.2833 27.1041 69.5567 27.1041 68.57C27.1041 67.87 26.9575 67.31 26.6641 66.89C26.3775 66.47 25.9275 66.1667 25.3141 65.98C24.7075 65.7933 23.9075 65.7 22.9141 65.7C22.4141 65.7 21.9641 65.72 21.5641 65.76C21.1641 65.8 20.7408 65.86 20.2941 65.94V71.31Z" fill="#3D3017"/>
<path d="M92.5463 49.35C90.0497 49.35 88.1713 48.895 86.9113 47.985C85.6747 47.0517 85.0563 45.745 85.0563 44.065C85.0563 42.2917 85.7913 40.9267 87.2613 39.97C88.7313 39.0133 90.8547 38.535 93.6313 38.535H98.2163V37.38C98.2163 36.0733 97.8547 35.07 97.1313 34.37C96.408 33.67 95.3697 33.32 94.0163 33.32C92.6863 33.32 91.6247 33.6583 90.8313 34.335C90.0613 35.0117 89.583 36.0033 89.3963 37.31H85.5463C85.803 35.42 86.7013 33.985 88.2413 33.005C89.7813 32.0017 91.8697 31.5 94.5063 31.5C97.3997 31.5 99.6047 32.0367 101.121 33.11C102.638 34.1833 103.396 35.735 103.396 37.765V43.295C103.396 45.4183 103.571 47.32 103.921 49H99.0913C98.858 48.1133 98.6947 47.3317 98.6013 46.655C97.9247 47.6117 97.0497 48.3 95.9763 48.72C94.9263 49.14 93.783 49.35 92.5463 49.35ZM93.6313 47.6C95.078 47.6 96.198 47.215 96.9913 46.445C97.808 45.6517 98.2163 44.6017 98.2163 43.295V40.355H95.1013C93.538 40.355 92.3363 40.6817 91.4963 41.335C90.6563 41.965 90.2363 42.8633 90.2363 44.03C90.2363 45.22 90.5163 46.1183 91.0763 46.725C91.6597 47.3083 92.5113 47.6 93.6313 47.6Z" fill="#3D3017"/>
<path d="M63.107 31.85H68.427L74.832 44.17L81.202 31.85H84.317L75.567 49.35H72.382L63.107 31.85Z" fill="#3D3017"/>
<path d="M49.4116 49.35C46.9149 49.35 45.0366 48.895 43.7766 47.985C42.5399 47.0517 41.9216 45.745 41.9216 44.065C41.9216 42.2917 42.6566 40.9267 44.1266 39.97C45.5966 39.0133 47.7199 38.535 50.4966 38.535H55.0816V37.38C55.0816 36.0733 54.7199 35.07 53.9966 34.37C53.2732 33.67 52.2349 33.32 50.8816 33.32C49.5516 33.32 48.4899 33.6583 47.6966 34.335C46.9266 35.0117 46.4482 36.0033 46.2616 37.31H42.4116C42.6682 35.42 43.5666 33.985 45.1066 33.005C46.6466 32.0017 48.7349 31.5 51.3716 31.5C54.2649 31.5 56.4699 32.0367 57.9866 33.11C59.5032 34.1833 60.2616 35.735 60.2616 37.765V43.295C60.2616 45.4183 60.4366 47.32 60.7866 49H55.9566C55.7232 48.1133 55.5599 47.3317 55.4666 46.655C54.7899 47.6117 53.9149 48.3 52.8416 48.72C51.7916 49.14 50.6482 49.35 49.4116 49.35ZM50.4966 47.6C51.9432 47.6 53.0632 47.215 53.8566 46.445C54.6732 45.6517 55.0816 44.6017 55.0816 43.295V40.355H51.9666C50.4032 40.355 49.2016 40.6817 48.3616 41.335C47.5216 41.965 47.1016 42.8633 47.1016 44.03C47.1016 45.22 47.3816 46.1183 47.9416 46.725C48.5249 47.3083 49.3766 47.6 50.4966 47.6Z" fill="#3D3017"/>
<path d="M18.4883 24.5H24.4383V46.83H39.4883V49H18.4883V24.5Z" fill="#3D3017"/>
<path d="M21.6302 17.5571C24.6185 16.9169 26.9116 13.231 26.9116 8.77956C26.9116 4.32809 24.6185 0.642238 21.6302 0.00335709C21.5227 -0.019922 21.4239 0.0809539 21.4239 0.210282V17.3501" fill="#3D3017"/>
<path d="M20.3336 17.3501V0.210285C20.3336 0.0796637 20.2348 -0.019919 20.1273 0.0033601C17.139 0.643534 14.8459 4.32938 14.8459 8.78086C14.8459 13.2323 17.1378 16.9182 20.1273 17.5584" fill="#3D3017"/>
<path d="M31.2466 21.6723C34.0998 22.7936 37.9471 20.9597 40.2602 17.2053C42.5733 13.4509 42.5546 9.06798 40.3652 6.86811C40.2865 6.78922 40.1514 6.81896 40.0839 6.92889L31.1803 21.3839" fill="#3D3017"/>
<path d="M30.2613 20.7773L39.1649 6.32234C39.2324 6.21241 39.2012 6.07273 39.0987 6.03264C36.2454 4.91137 32.3981 6.74524 30.085 10.4996C27.7719 14.254 27.7906 18.637 29.98 20.8368" fill="#3D3017"/>
<path d="M10.7548 21.6723C7.90155 22.7936 4.05427 20.9597 1.74115 17.2053C-0.571968 13.4509 -0.553213 9.06798 1.63612 6.86811C1.71489 6.78922 1.84993 6.81896 1.91745 6.92889L10.8211 21.3839" fill="#3D3017"/>
<path d="M11.7401 20.7773L2.83644 6.32233C2.76892 6.2124 2.80018 6.07272 2.90271 6.03263C5.75597 4.91136 9.60326 6.74523 11.9164 10.5009C14.2295 14.2553 14.2107 18.6382 12.0214 20.8381" fill="#3D3017"/>
</svg>
